<svg id="Layer_1" enable-background="new 0 0 511.981 511.981" height="512" viewBox="0 0 511.981 511.981" width="512" xmlns="http://www.w3.org/2000/svg"><g><g><path d="m411.991 230.184-116.282 139.868h-79.437l-116.281-139.868 156-185.87z" fill="#c7badb"/><g><g><path d="m359.621 504.481h-207.261c-12.478 0-21.909-11.3-19.678-23.577l16.626-91.473c2.099-11.547 12.272-19.951 24.151-19.951h165.063c11.879 0 22.052 8.404 24.151 19.951l16.626 91.473c2.231 12.277-7.2 23.577-19.678 23.577z" fill="#836da6"/><path d="m379.299 480.905-16.626-91.473c-2.099-11.547-12.272-19.951-24.151-19.951h-40c11.879 0 22.053 8.404 24.151 19.951l16.626 91.473c2.231 12.276-7.2 23.577-19.677 23.577h40c12.477-.001 21.908-11.301 19.677-23.577z" fill="#745b9c"/><g><path d="m321.964 449.058v-24.153c-9.787 0-17.721-7.835-17.721-17.5h-96.434c.028.404.043.812.043 1.223 0 9.665-7.934 17.5-17.721 17.5-.038 0-.076 0-.114-.001v22.932c.038 0 .076-.001.114-.001 9.787 0 17.721 7.835 17.721 17.5h96.391c0-9.666 7.934-17.5 17.721-17.5z" fill="#ffffbf"/></g></g></g><g><path d="m232.906 369.481v-227.266l192.976-134.734-130.173 362z" fill="#ffc72e"/><path d="m372.473 44.771-116.764 324.71h40l130.173-362z" fill="#ffb108"/><path d="m279.075 369.481v-190.266l-192.976-134.734 130.173 325z" fill="#ffed75"/><path d="m86.099 44.481 15.529 38.769 137.447 95.964v190.267h40v-190.267z" fill="#fce547"/></g></g><g><path d="m200.352 466.558c0 4.142 3.357 7.5 7.5 7.5h96.392c4.143 0 7.5-3.358 7.5-7.5 0-5.514 4.585-10 10.221-10 4.143 0 7.5-3.358 7.5-7.5v-24.153c0-4.142-3.357-7.5-7.5-7.5-5.636 0-10.221-4.486-10.221-10 0-4.142-3.357-7.5-7.5-7.5h-96.435c-4.866 0-7.457 4.536-7.457 8.723 0 5.514-4.585 10-10.239 10-3.818-.06-7.596 3.769-7.596 7.5v22.932c.451 4.619 2.989 7.119 7.615 7.5 5.635-.002 10.22 4.484 10.22 9.998zm-2.835-34.024c8.325-2.532 14.831-9.23 17.03-17.63h83.355c2.475 7.786 8.698 13.938 16.562 16.372v11.41c-7.863 2.433-14.087 8.586-16.562 16.372h-83.71c-2.487-7.824-8.758-13.999-16.676-16.407v-10.117z"/><path d="m394.628 94.393c3.9 1.4 8.193-.622 9.596-4.52l28.716-79.854c2.422-6.734-5.485-12.783-11.352-8.688l-120.985 84.47-38.867-46.309c-3.83-3.571-7.66-3.571-11.49 0l-58.447 69.639-101.405-70.8c-5.974-4.173-13.967 2.174-11.256 8.938l53.169 132.745-38.06 45.348c-2.331 2.778-2.341 6.827-.022 9.617l105.586 127.002h-26.35c-15.521 0-28.781 10.981-31.53 26.11l-16.626 91.472c-3.024 16.63 10.155 32.418 27.057 32.418h12.074c9.697 0 9.697-15 0-15h-12.076c-7.69 0-13.673-7.17-12.299-14.735l16.626-91.472c1.453-7.992 8.507-13.792 16.772-13.792h165.062c8.266 0 15.319 5.8 16.772 13.792l16.626 91.472c1.374 7.566-4.608 14.735-12.299 14.735h-155.193c-9.697 0-9.697 15 0 15h155.194c16.902 0 30.08-15.788 27.057-32.418l-16.626-91.472c-2.749-15.129-16.01-26.11-31.53-26.11h-26.35l105.586-127.002c2.318-2.79 2.309-6.838-.022-9.617l-43.567-51.908 15.047-41.844c1.401-3.898-.622-8.194-4.52-9.596-3.899-1.4-8.193.622-9.596 4.52l-16.482 45.834c-.01.028-.021.057-.031.085l-68.153 189.528h-3.86v-182.767c0-2.451-1.197-4.747-3.206-6.149l-40.775-28.468 168.255-117.472-20.739 57.673c-1.402 3.897.622 8.193 4.519 9.595zm-255.996 101.417 53.423 133.38-82.292-98.983zm263.586 34.397-85.391 102.711 51.468-143.129zm-130.642 131.774h-50.229l-118.946-296.971 169.175 118.115zm-67.43-244.228 51.844-61.771 32.264 38.442-58.762 41.027z"/></g></g></svg>